<svg width="608" height="241" viewBox="0 0 608 241" fill="none" xmlns="http://www.w3.org/2000/svg">
<rect y="130" width="608" height="20" fill="url(#paint0_linear_3_111)"/>
<path d="M158.305 225.792C158.305 230.696 156.628 234.292 153.273 236.579C149.917 238.843 145.26 239.974 139.301 239.974H121V191.026H138.21C144.451 191.026 148.92 191.945 151.619 193.784C154.317 195.6 155.666 198.488 155.666 202.449C155.666 205.491 154.927 207.955 153.449 209.841C151.994 211.727 149.706 212.989 146.586 213.626C150.668 214.191 153.636 215.488 155.49 217.516C157.367 219.544 158.305 222.302 158.305 225.792ZM145.636 204.642C145.636 202.779 144.955 201.494 143.594 200.787C142.234 200.056 140.122 199.691 137.259 199.691H130.925V210.195H136.978C139.911 210.195 142.081 209.782 143.489 208.957C144.92 208.132 145.636 206.693 145.636 204.642ZM148.17 224.908C148.17 222.715 147.43 221.171 145.952 220.275C144.474 219.355 141.706 218.895 137.647 218.895H130.925V231.132H135.957C139.829 231.132 142.492 230.944 143.946 230.567C145.424 230.189 146.492 229.553 147.149 228.657C147.829 227.761 148.17 226.511 148.17 224.908Z" fill="black"/>
<path d="M219.289 239.974L206.866 221.442H201.833V239.974H191.908V191.026H209.611C215.875 191.026 220.45 192.157 223.336 194.421C226.246 196.684 227.7 200.398 227.7 205.562C227.7 209.735 226.82 213.06 225.061 215.535C223.325 218.011 220.849 219.591 217.635 220.275L230.657 239.974H219.289ZM217.635 205.986C217.635 203.487 217.001 201.813 215.734 200.964C214.491 200.115 212.426 199.691 209.54 199.691H201.833V212.741H209.118C211.347 212.741 213.06 212.529 214.256 212.105C215.453 211.68 216.309 211.02 216.825 210.124C217.365 209.228 217.635 207.849 217.635 205.986Z" fill="black"/>
<path d="M256.517 239.974L272.636 191.026H285.552L301.706 239.974H291.535L288.297 230.036H269.539L266.371 239.974H256.517ZM272.354 221.3H285.481L278.935 201.07L272.354 221.3Z" fill="black"/>
<path d="M368.18 225.792C368.18 230.696 366.572 234.457 363.358 237.074C360.167 239.691 355.451 241 349.21 241C344.893 241 341.139 240.281 337.948 238.843C334.781 237.404 332.2 235.082 330.205 231.875L337.843 226.004C338.969 227.607 340.036 228.81 341.045 229.612C342.054 230.413 343.251 231.038 344.635 231.486C346.019 231.934 347.615 232.158 349.421 232.158C352.119 232.158 354.219 231.698 355.721 230.779C357.246 229.836 358.009 228.409 358.009 226.499C358.009 225.415 357.739 224.507 357.199 223.776C356.683 223.045 355.897 222.42 354.841 221.902C353.785 221.359 351.955 220.746 349.351 220.062C346.817 219.379 344.424 218.695 342.171 218.011C339.942 217.304 338.007 216.396 336.364 215.288C334.745 214.18 333.467 212.788 332.528 211.114C331.59 209.44 331.121 207.33 331.121 204.784C331.121 200.139 332.681 196.519 335.801 193.926C338.922 191.309 343.391 190 349.21 190C357.633 190 363.593 192.9 367.089 198.7L359.522 204.642C358.184 202.567 356.683 201.082 355.017 200.186C353.351 199.29 351.369 198.842 349.069 198.842C346.77 198.842 344.893 199.266 343.438 200.115C342.007 200.94 341.292 202.249 341.292 204.041C341.292 205.621 342.042 206.835 343.544 207.684C345.046 208.509 347.662 209.346 351.392 210.195C353.457 210.737 355.498 211.327 357.516 211.963C359.534 212.576 361.328 213.437 362.9 214.545C364.496 215.653 365.775 217.103 366.737 218.895C367.699 220.687 368.18 222.986 368.18 225.792Z" fill="black"/>
<path d="M423.497 239.974H399.988V232.3H406.78V198.7H399.988V191.026H423.497V198.7H416.74V232.3H423.497V239.974Z" fill="black"/>
<path d="M457.593 239.974V191.026H467.517V230.85H488V239.974H457.593Z" fill="black"/>
<path d="M66.1616 63.1623C66.1616 71.8169 63.1864 78.1623 57.236 82.1983C51.2856 86.1928 43.0258 88.19 32.4566 88.19H0V1.80999H30.5217C41.5903 1.80999 49.5172 3.43273 54.3024 6.67823C59.0877 9.88211 61.4803 14.9792 61.4803 21.9695C61.4803 27.337 60.1696 31.6852 57.5481 35.0139C54.9682 38.3426 50.9111 40.5687 45.3769 41.6921C52.6172 42.6907 57.881 44.9792 61.1683 48.5576C64.4971 52.1359 66.1616 57.0042 66.1616 63.1623ZM43.6916 25.8391C43.6916 22.552 42.4849 20.2843 40.0715 19.0361C37.658 17.7462 33.913 17.1012 28.8365 17.1012H17.6015V35.638H28.3371C33.5385 35.638 37.3875 34.9098 39.8842 33.4535C42.4225 31.9972 43.6916 29.4591 43.6916 25.8391ZM48.1856 61.6019C48.1856 57.7323 46.8749 55.0069 44.2534 53.4258C41.6319 51.8031 36.7218 50.9917 29.523 50.9917H17.6015V72.5867H26.5271C33.3929 72.5867 38.1157 72.2538 40.6956 71.5881C43.3171 70.9223 45.2104 69.7989 46.3755 68.2178C47.5822 66.6366 48.1856 64.4313 48.1856 61.6019Z" fill="black"/>
<path d="M73.3395 88.19L101.926 1.80999H124.833L153.482 88.19H135.444L129.702 70.6519H96.4336L90.8161 88.19H73.3395ZM101.427 55.2358H124.708L113.099 19.5354L101.427 55.2358Z" fill="black"/>
<path d="M213.215 88.19L181.757 26.4632V88.19H164.53V1.80999H187.375L216.648 60.0416V1.80999H233.937V88.19H213.215Z" fill="black"/>
<path d="M299.412 88.19L275.507 52.1151L270.264 58.1692V88.19H252.662V1.80999H270.264V35.5132L298.539 1.80999H319.074L286.867 39.0083L321.383 88.19H299.412Z" fill="black"/>
<path d="M332.556 88.19V1.80999H350.157V72.0874H386.484V88.19H332.556Z" fill="black"/>
<path d="M397.344 88.19V1.80999H453.457V17.3509H414.945V35.7628H447.402V51.3662H414.945V72.0874H453.457V88.19H397.344Z" fill="black"/>
<path d="M531.228 63.1623C531.228 71.8169 528.377 78.4535 522.677 83.0721C517.017 87.6907 508.654 90 497.585 90C489.929 90 483.271 88.7309 477.612 86.1928C471.994 83.6546 467.417 79.5562 463.88 73.8974L477.424 63.5368C479.422 66.3662 481.315 68.4882 483.104 69.9029C484.894 71.3176 487.016 72.4202 489.471 73.2108C491.926 74.0014 494.756 74.3967 497.96 74.3967C502.745 74.3967 506.469 73.5853 509.132 71.9626C511.837 70.2982 513.189 67.7809 513.189 64.4105C513.189 62.4965 512.711 60.8946 511.754 59.6047C510.838 58.3148 509.444 57.2122 507.572 56.2968C505.699 55.3398 502.454 54.258 497.835 53.0513C493.341 51.8447 489.096 50.638 485.102 49.4313C481.149 48.1831 477.716 46.5811 474.803 44.6255C471.932 42.6699 469.664 40.215 468 37.2607C466.335 34.3065 465.503 30.5825 465.503 26.0888C465.503 17.8918 468.27 11.5049 473.804 6.92788C479.339 2.30929 487.266 0 497.585 0C512.523 0 523.093 5.11789 529.293 15.3537L515.873 25.8391C513.501 22.1775 510.838 19.5562 507.884 17.975C504.929 16.3939 501.413 15.6033 497.335 15.6033C493.258 15.6033 489.929 16.3523 487.349 17.8502C484.81 19.3065 483.541 21.6158 483.541 24.7781C483.541 27.5659 484.873 29.7087 487.536 31.2067C490.199 32.663 494.839 34.1401 501.455 35.638C505.117 36.595 508.737 37.6352 512.315 38.7587C515.894 39.8405 519.077 41.3592 521.865 43.3148C524.695 45.2705 526.962 47.8294 528.669 50.9917C530.375 54.154 531.228 58.2108 531.228 63.1623Z" fill="black"/>
<path d="M608 63.1623C608 71.8169 605.15 78.4535 599.449 83.0721C593.79 87.6907 585.426 90 574.357 90C566.701 90 560.043 88.7309 554.384 86.1928C548.767 83.6546 544.189 79.5562 540.653 73.8974L554.197 63.5368C556.194 66.3662 558.088 68.4882 559.877 69.9029C561.666 71.3176 563.788 72.4202 566.243 73.2108C568.698 74.0014 571.528 74.3967 574.732 74.3967C579.517 74.3967 583.241 73.5853 585.905 71.9626C588.609 70.2982 589.962 67.7809 589.962 64.4105C589.962 62.4965 589.483 60.8946 588.526 59.6047C587.611 58.3148 586.217 57.2122 584.344 56.2968C582.472 55.3398 579.226 54.258 574.607 53.0513C570.113 51.8447 565.869 50.638 561.874 49.4313C557.921 48.1831 554.488 46.5811 551.575 44.6255C548.704 42.6699 546.436 40.215 544.772 37.2607C543.108 34.3065 542.275 30.5825 542.275 26.0888C542.275 17.8918 545.042 11.5049 550.577 6.92788C556.111 2.30929 564.038 0 574.357 0C589.296 0 599.865 5.11789 606.065 15.3537L592.646 25.8391C590.274 22.1775 587.611 19.5562 584.656 17.975C581.702 16.3939 578.186 15.6033 574.108 15.6033C570.03 15.6033 566.701 16.3523 564.121 17.8502C561.583 19.3065 560.314 21.6158 560.314 24.7781C560.314 27.5659 561.645 29.7087 564.308 31.2067C566.971 32.663 571.611 34.1401 578.227 35.638C581.889 36.595 585.509 37.6352 589.088 38.7587C592.666 39.8405 595.85 41.3592 598.638 43.3148C601.467 45.2705 603.735 47.8294 605.441 50.9917C607.147 54.154 608 58.2108 608 63.1623Z" fill="black"/>
<defs>
<linearGradient id="paint0_linear_3_111" x1="-8.95314e-07" y1="138.919" x2="608" y2="138.919" gradientUnits="userSpaceOnUse">
<stop stop-color="#03AD64"/>
<stop offset="1" stop-color="#FCF942"/>
</linearGradient>
</defs>
</svg>
